<?xml version="1.0" encoding="iso-8859-1"?>
<!-- Generator: Adobe Illustrator 19.0.0, SVG Export Plug-In . SVG Version: 6.00 Build 0)  -->
<svg version="1.1" id="Capa_1" xmlns="http://www.w3.org/2000/svg" xmlns:xlink="http://www.w3.org/1999/xlink" x="0px" y="0px"
	 viewBox="0 0 511.999 511.999" style="enable-background:new 0 0 511.999 511.999;" xml:space="preserve">
<g>
	<g>
		<path d="M498.523,246.291c37.941-67.923-8.514-149.499-85.88-157.204l-28.232-2.813c-20.59-2.053-38.982-10.974-54.263-28.128
			c-53.185-59.695-152.219-44.954-184.82,26.764c-7.94,17.466-22.298,31.438-40.428,39.344l-39.773,17.34
			c-63.399,27.64-84.894,104.334-44.848,159.183l25.236,34.563c5.481,7.508,9.482,15.807,11.893,24.666l12.532,46.073
			c17.167,63.115,88.755,97.22,151.241,70.693l5.35-2.271c15.901-6.751,33.992-8.387,50.932-4.616l82.048,18.269
			c79.933,17.798,150.39-51.574,132.54-127.825l-10.384-44.351c-4.203-17.953-1.524-36.78,7.544-53.012L498.523,246.291z"/>
	</g>
</g>
</svg>
